<svg xmlns="http://www.w3.org/2000/svg" xmlns:xlink="http://www.w3.org/1999/xlink" version="1.1" x="0px" y="0px" viewBox="0 0 100 125" enable-background="new 0 0 100 100" xml:space="preserve">
    <g>
        <path fill="none" d="M50,16.215c-22.544,0-40.884,13.871-40.884,30.919S27.456,78.053,50,78.053c2.423,0,4.892-0.171,7.339-0.508   c0.094-0.014,0.188-0.02,0.281-0.02c0.606,0,1.186,0.267,1.58,0.74c4.189,5.018,9.523,5.746,13.185,5.488   c-2.95-2.874-3.761-5.703-3.961-7.378c-0.109-0.912,0.402-1.789,1.251-2.142c13.082-5.458,21.209-15.842,21.209-27.099   C90.884,30.086,72.544,16.215,50,16.215z"/>
        <path d="M95,47.134c0-19.319-20.187-35.035-45-35.035c-24.813,0-45,15.716-45,35.035s20.187,35.035,45,35.035   c2.247,0,4.529-0.137,6.801-0.406c4.416,4.731,9.958,6.138,14.54,6.138c2.676,0,5.025-0.48,6.63-1.059   c0.747-0.267,1.271-0.943,1.351-1.73c0.078-0.79-0.303-1.554-0.982-1.966c-3.465-2.098-4.884-4.301-5.462-5.822   C86.569,71.035,95,59.598,95,47.134z M69.675,74.233c-0.849,0.354-1.36,1.23-1.251,2.142c0.2,1.674,1.011,4.504,3.961,7.378   c-3.662,0.257-8.995-0.47-13.185-5.488c-0.394-0.472-0.974-0.74-1.58-0.74c-0.093,0-0.187,0.006-0.281,0.02   c-2.448,0.338-4.917,0.508-7.339,0.508c-22.544,0-40.884-13.871-40.884-30.919S27.456,16.215,50,16.215   s40.884,13.871,40.884,30.919C90.884,58.39,82.757,68.775,69.675,74.233z"/>
    </g>
</svg>