<svg xmlns="http://www.w3.org/2000/svg" data-name="Layer 1" viewBox="0 0 100 125" x="0px" y="0px">
    <g fill="#666666">
        <path d="M28.06,77H71.94a2,2,0,0,0,2-2V51a2,2,0,0,0-2-2H28.06a2,2,0,0,0-2,2V75A2,2,0,0,0,28.06,77ZM59.5,53H69.94v8H59.5Zm0,12H69.94v8H59.5Zm-15-12h11v8h-11Zm0,12h11v8h-11ZM30.06,53H40.5v8H30.06Zm0,12H40.5v8H30.06Z"/>
        <path d="M89.67,29.35a10,10,0,0,0-10-10H75.08V13.81a2,2,0,1,0-4,0v5.54H52V13.81a2,2,0,0,0-4,0v5.54H28.92V13.81a2,2,0,0,0-4,0v5.54H20.33a10,10,0,0,0-10,10V78.19a10,10,0,0,0,10,10H79.67a10,10,0,0,0,10-10Zm-4,48.85a6,6,0,0,1-6,6H20.33a6,6,0,0,1-6-6V41.45H85.67Zm0-40.74H14.33v-8.1a6,6,0,0,1,6-6h4.59v5.54a2,2,0,0,0,4,0V23.35H48v5.54a2,2,0,0,0,4,0V23.35H71.08v5.54a2,2,0,0,0,4,0V23.35h4.59a6,6,0,0,1,6,6Z"/>
    </g>
</svg>